<svg height="512pt" viewBox="-26 0 512 512.00019" width="512pt" xmlns="http://www.w3.org/2000/svg"><path d="m434.648438 382.703125-9.523438-179.945313c-.566406-10.859374-1.273438-24.371093-10.558594-33.214843-4.894531-4.671875-9.605468-6.578125-16.257812-6.578125-1.691406 0-3.609375.121094-6.039063.382812-17.699219 1.898438-36.136719 1.917969-53.980469 1.941406-8.085937.007813-16.445312.019532-24.601562.199219l-252.722656 5.800781c-5.355469.117188-12.019532.265626-17.398438 3.558594-9.484375 5.832032-11.128906 17.949219-11.488281 30.175782l-5.070313 175.417968c-.488281 16.871094-.097656 32.984375 9.933594 44.6875 11.261719 13.140625 30.414063 14.914063 47.660156 14.914063 1.328126 0 2.644532-.011719 3.957032-.027344l291.757812-3.601563c17.359375-.210937 36.757813-1.609374 47.300782-15.578124 7.804687-10.359376 7.777343-23.949219 7.03125-38.132813zm-22.769532-28.6875c-.890625 5.066406-8.351562 6.136719-12.726562 6.328125-92.019532 4.023438-185.699219 6.0625-278.4375 6.0625-17.902344 0-35.660156-.070312-52.792969-.21875-9.574219-.074219-16.53125-2.019531-19.582031-5.484375-1.488282-1.6875-2.089844-3.824219-1.789063-6.359375.703125-5.945312 5.949219-8.257812 18.71875-8.257812l2.8125.003906c1.054688 0 2.039063-.007813 2.863281-.042969 14.6875-.621094 30.078126-1.179687 47.054688-1.710937l7.648438-.238282-19.136719-40.210937c-.636719-1.34375-1.820313-3.84375-1.042969-5.507813.21875-.464844.527344-.824218.976562-1.140625l3.71875-2.621093-2.257812-3.949219c-4.902344-8.582031-7.265625-17.4375-6.828125-25.613281.550781-10.355469 5.804687-19.671876 13.710937-24.3125 3.441407-2.019532 7.398438-3.089844 11.449219-3.089844 3.566407 0 7.019531.835937 9.992188 2.414062l6.242187 3.3125 1.046875-6.988281c.539063-3.605469 2.097657-7.199219 4.496094-10.402344 4.523437-6.03125 11.492187-10.125 18.632813-10.949219 1.109374-.128906 2.25-.191406 3.386718-.191406 9.851563 0 20.167969 4.730469 28.300782 12.972656l5.074218 5.148438 3.027344-6.566406c4.65625-10.117188 15.410156-17.179688 26.148438-17.179688h.113281c10.414062.046875 20.703125 6.625 25.597656 16.363282l3.453125 6.871093 4.878906-5.945312c4.691406-5.714844 12.148438-9.269531 19.464844-9.269531 1.714844 0 3.398438.195312 5.003906.582031 8.476563 2.035156 15.617188 9.433593 17.765625 18.410156l1.855469 7.753906 6.171875-5.046875c5.015625-4.097656 11.59375-6.449218 18.050781-6.449218 2.050782 0 4.070313.234374 6.003906.691406 10.625 2.53125 19.199219 11.839844 20.847657 22.632812 1.511719 9.917969-4.640625 19.746094-10.367188 25.148438l-9.511719 8.964844 12.972657-.328126-16.265625 53.667969 6.582031.152344c14.1875.320313 28.371094.714844 42.148437 1.167969l9.984376.339844c3.300781.117187 7.042968.25 10.085937 1.792968 3.050781 1.539063 4.925781 4.609375 4.457031 7.292969zm0 0" fill="#5b5d6d"/><path d="m412.921875 493.886719-.796875-36.277344-5.320312.464844c-3.289063.289062-6.832032.5-10.8125.644531-10.84375.367188-22.121094.726562-34.476563 1.089844l-4.820313.144531-.316406 45 44.363282 1.648437c.574218.023438 1.257812.050782 1.972656.050782 2.25 0 5.101562-.222656 7.175781-1.957032 2.972656-2.5 3.125-6.894531 3.03125-10.808593zm0 0" fill="#939baa"/><path d="m40.816406 461.90625-4.894531-.078125-1.253906 33.921875c-.105469 2.828125-.070313 5.535156 1.425781 7.53125 2.125 2.902344 6.171875 3.207031 9.878906 3.265625l35.804688.449219.769531.003906c4.75 0 10.527344-.542969 13.046875-4.804688 1.261719-2.140624 1.363281-4.6875 1.363281-7.542968l.105469-32.0625-4.972656-.042969c-17.476563-.152344-34.726563-.367187-51.273438-.640625zm0 0" fill="#939baa"/><path d="m341.628906 230.265625c-2.191406-.523437-4.46875-.789063-6.769531-.789063-8.46875 0-16.742187 3.578126-22.480469 9.542969-1.011718-11.273437-9.414062-21.425781-20.589844-24.113281-1.890624-.453125-3.859374-.683594-5.847656-.683594-9.550781 0-18.753906 5.25-23.605468 13.128906-4.410157-12.050781-16.730469-21.070312-29.628907-21.132812h-.125c-13.160156 0-25.800781 9.363281-30.011719 21.773438-5.007812-5.617188-16.511718-16.152344-32.371093-16.152344-1.296875 0-2.601563.074218-3.886719.222656-7.949219.914062-15.6875 5.445312-20.699219 12.125-3.441406 4.585938-5.265625 9.761719-5.308593 14.910156-3.871094-2.839844-8.824219-4.417968-14.085938-4.417968-4.605469 0-9.085938 1.203124-12.957031 3.476562-8.753907 5.136719-14.570313 15.378906-15.183594 26.738281-.621094 11.695313 4.0625 22.09375 8.097656 28.753907l1.558594 2.570312 3-.167969c.480469-.027343.921875-.046875 1.25-.054687l235.371094-6.199219 1.015625-2.675781c10.917968-6.765625 18.089844-20.601563 16.382812-31.757813-1.828125-11.96875-11.335937-22.289062-23.125-25.097656zm0 0" fill="#af7979"/><g fill="#ff8984"><path d="m374.59375 24.375c-2.503906-1.246094-5.25-1.878906-8.164062-1.878906-.769532 0-1.5625.046875-2.355469.132812l-.828125.113282.167968-1.457032-3.953124 1.964844-.046876.003906.003907.015625-4.25 2.109375c-6.738281 3.351563-13.070313 9.386719-16.523438 15.765625-4.515625 8.378907-4.878906 18.039063-.941406 25.21875 5.128906 9.355469 15.695313 12.6875 23.875 12.6875 1.957031 0 3.886719-.179687 5.734375-.53125 8.921875-1.699219 16.875-7.003906 21.273438-14.183593 3.867187-6.296876 4.851562-13.34375 2.847656-20.375-2.316406-8.136719-8.605469-15.457032-16.839844-19.585938zm0 0"/><path d="m336.65625 121.273438c-10.402344-.402344-21.035156-.433594-31.316406-.460938l-1.070313-.003906c-5.683593-.011719-11.558593-.019532-17.328125-.097656-35.878906-.46875-70.984375-.882813-104.332031-1.242188-19.8125-.210938-39.625-.410156-59.519531-.589844-.84375-.011718-1.691406-.019531-2.5625-.019531-5.808594 0-11.898438.363281-17.085938 2.988281-5.859375 2.957032-10.585937 9.925782-8.359375 16.457032 1.230469 3.628906 4.480469 6.644531 8.929688 8.265624 4.039062 1.464844 8.480469 1.664063 12.398437 1.84375 25.226563 1.144532 50.90625 1.722657 76.324219 1.722657 28.304687 0 56.847656-.71875 84.84375-2.136719 15.179687-.769531 31.628906-1.804688 50.296875-3.164062 4.445312-.332032 9.484375-.703126 13.820312-2.859376 5.300782-2.65625 7.863282-7.0625 6.855469-11.789062-.878906-4.101562-4.976562-8.640625-11.894531-8.914062zm0 0"/><path d="m220.324219 79.050781c1.957031 0 3.890625-.179687 5.734375-.53125 8.917968-1.699219 16.875-7 21.289062-14.191406 3.867188-6.3125 4.847656-13.359375 2.835938-20.367187-2.316406-8.144532-8.609375-15.464844-16.832032-19.582032-2.507812-1.253906-5.261718-1.890625-8.1875-1.890625-5.695312 0-12.019531 2.519531-17.800781 7.085938l-1.476562 1.167969-.246094-.328126-1.382813 1.617188-.734374.578125.109374.148437-2.039062 2.378907c-1.699219 1.980469-3.109375 4-4.203125 6.007812-2.398437 4.449219-3.667969 9.3125-3.667969 14.0625 0 4.035157.941406 7.890625 2.722656 11.152344 5.128907 9.359375 15.699219 12.691406 23.878907 12.691406zm0 0"/><path d="m114.195312 64.335938c3.867188-6.296876 4.851563-13.34375 2.847657-20.386719-.90625-3.152344-2.378907-6.167969-4.378907-8.96875l-1.90625-2.664063.125-.144531-.582031-.496094-1.34375-1.878906-.363281.421875-1.535156-1.308594c-2.097656-1.785156-4.402344-3.3125-6.855469-4.539062-2.511719-1.25-5.261719-1.882813-8.175781-1.882813-11.082032 0-22.824219 9.484375-27.769532 18.65625-2.410156 4.460938-3.683593 9.320313-3.683593 14.054688 0 4.027343.945312 7.886719 2.738281 11.164062 5.128906 9.351563 15.695312 12.6875 23.875 12.6875 1.957031 0 3.886719-.179687 5.734375-.53125 8.910156-1.699219 16.863281-7 21.273437-14.183593zm0 0"/></g><path d="m455.074219 406.980469-7.257813-310.570313-435.335937 3.277344 435.332031-3.277344-.949219-40.789062c-.691406-29.050782-9.441406-45.933594-24.632812-47.535156-4.917969-.519532-10.347657-.761719-17.097657-.761719-4.066406 0-8.246093.089843-11.929687.164062l-.671875.015625c-3.648438.070313-7.425781.144532-11.097656.144532-.714844 0-1.429688-.003907-2.140625-.007813l-317.8125-2.632813c-.898438-.007812-1.816407-.007812-2.726563-.007812-17.074218 0-34.285156 1.648438-44.515625 13.597656-8.910156 10.398438-9.429687 24.988282-9.183593 40.28125l.589843 36.222656.066407 2.332032c-.007813-.003906-.03125-.007813-.03125-.007813l5.484374 337.605469c.128907 7.59375.613282 14.835938 5.109376 19.933594 5.40625 6.125 14.300781 6.773437 22.945312 6.910156 38.25.636719 77.210938.960938 115.800781.960938 80.222657 0 161.300781-1.386719 240.972657-4.121094 21.621093-.738282 45.019531-3.917969 54.628906-21.878906 4.929687-9.207032 4.675781-20.167969 4.453125-29.855469zm-116.433594-365.832031c4.964844-9.179688 16.730469-18.675782 27.824219-18.675782 2.867187 0 5.605468.640625 8.136718 1.90625 8.21875 4.117188 14.511719 11.4375 16.835938 19.585938 1.976562 6.917968.964844 14.152344-2.84375 20.367187-4.417969 7.191407-12.371094 12.492188-21.285156 14.1875-1.890625.359375-3.8125.539063-5.714844.539063-10.289062 0-19.667969-4.980469-23.898438-12.695313-3.941406-7.175781-3.578124-16.839843.945313-25.214843zm-141.246094 0c4.960938-9.179688 16.726563-18.675782 27.820313-18.675782 2.867187 0 5.609375.640625 8.140625 1.910156 8.214843 4.109376 14.507812 11.429688 16.832031 19.582032 1.976562 6.917968.96875 14.152344-2.84375 20.367187-4.414062 7.191407-12.371094 12.492188-21.28125 14.1875-1.894531.359375-3.816406.539063-5.71875.539063-10.289062 0-19.667969-4.980469-23.894531-12.691406-3.9375-7.1875-3.574219-16.851563.945312-25.21875zm-133.140625-.003907c4.957032-9.179687 16.71875-18.671875 27.820313-18.671875 2.871093 0 5.609375.640625 8.140625 1.90625 8.207031 4.113282 14.5 11.433594 16.832031 19.578125 1.972656 6.933594.960937 14.167969-2.84375 20.375-4.414063 7.191407-12.371094 12.492188-21.28125 14.1875-1.894531.359375-3.816406.539063-5.71875.539063-10.289063 0-19.667969-4.980469-23.894531-12.695313-3.941406-7.175781-3.578125-16.839843.945312-25.21875zm39.195313 80.695313c5.1875-2.617188 11.269531-2.976563 17.074219-2.976563.894531 0 1.773437.007813 2.644531.015625 19.808593.179688 39.625.378906 59.441406.589844 33.367187.355469 68.46875.773438 104.324219 1.238281 5.773437.082031 11.660156.089844 17.351562.101563l1.03125.003906c10.289063.027344 20.925782.058594 31.339844.460938 5.921875.230468 10.808594 3.894531 11.890625 8.914062.382813 1.773438 1.023437 7.855469-6.855469 11.789062-4.34375 2.164063-9.597656 2.546876-13.820312 2.855469-18.792969 1.375-35.242188 2.414063-50.289063 3.171875-27.949219 1.417969-56.492187 2.136719-84.847656 2.136719-25.359375 0-51.039063-.582031-76.386719-1.726563-4.09375-.195312-8.328125-.390624-12.34375-1.855468-4.4375-1.613282-7.691406-4.625-8.925781-8.257813-1.703125-5.019531 1.011719-12.742187 8.371094-16.460937zm321.761719 297.195312c-9.265626 12.277344-27.074219 14.167969-44.9375 14.382813l-291.871094 3.601562c-1.28125.007813-2.570313.015625-3.867188.015625-17.367187 0-34.878906-1.679687-45.320312-13.863281-9.324219-10.875-9.660156-27.027344-9.210938-42.640625l5.082032-175.417969c.308593-10.835937 1.75-22.601562 10.0625-27.707031 4.644531-2.859375 10.585937-2.996094 15.882812-3.117188l252.730469-5.792968c8.121093-.1875 16.460937-.199219 24.546875-.207032 17.90625-.019531 36.421875-.039062 54.292968-1.957031 1.757813-.191406 3.828126-.386719 5.816407-.386719 4.175781 0 8.769531.699219 14.074219 5.761719 8.417968 8.023438 9.066406 20.339844 9.636718 31.207031l9.523438 179.949219c.714844 13.613281.765625 26.625-6.441406 36.171875zm0 0" fill="#bfc7d8"/><path d="m408.78125 344.050781c-3.652344-1.859375-7.746094-2-11.347656-2.121093-3.292969-.117188-6.585938-.226563-9.984375-.339844-26.460938-.867188-53.09375-1.492188-79.15625-1.863282-19.949219-.28125-40.175781-.421874-60.105469-.421874-6.371094 0-12.730469.015624-19.066406.042968-26.453125.128906-53.085938.503906-79.160156 1.109375-26.316407.613281-52.945313 1.484375-79.136719 2.59375-.816407.03125-1.726563.035157-2.6875.035157h-1.230469c-.363281-.007813-.738281-.007813-1.097656-.007813-7.835938 0-20.953125 0-22.234375 10.910156-.414063 3.410157.4375 6.34375 2.519531 8.699219 4.628906 5.265625 14.417969 6.441406 21.8125 6.5 17.5.144531 35.285156.21875 52.867188.21875 92.730468 0 186.4375-2.039062 278.507812-6.0625 11.664062-.5 14.894531-5.070312 15.546875-8.808594.789063-4.476562-2.453125-8.667968-6.046875-10.484375zm0 0" fill="#bfc7d8"/><path d="m102.761719 297.085938c-1.289063 2.738281-.140625 5.609374 1.050781 8.097656l16.519531 34.722656.46875 4.34375 4.621094-.136719c7.304687-.210937 15.941406-.457031 24.601563-.660156 26.058593-.605469 52.675781-.976563 79.113281-1.105469 6.332031-.03125 12.683593-.042968 19.046875-.042968 19.925781 0 40.136718.140624 60.070312.421874 8.652344.121094 18.089844.292969 29.707032.539063l4.371093-.085937.644531-3.960938 15.984376-52.722656-247.046876 6.503906c-3.40625.089844-7.527343.632812-9.152343 4.085938zm0 0" fill="#f7b36f"/><path d="m460.066406 406.863281-8.207031-351.351562c-.746094-31.890625-11.082031-50.5-29.109375-52.402344-9.789062-1.03125-19.890625-.820313-29.65625-.621094-4.550781.09375-9.242188.195313-13.757812.152344l-317.824219-2.6289062c-18.226563-.1445308-38.707031.8984372-51.070313 15.3359372-10.886718 12.710938-10.582031 31.304688-10.3828122 43.609375l6.1093752 376.152344c.105469 6.472656.265625 16.257813 6.355469 23.164063 4.769531 5.402343 11.425781 7.386718 18.21875 8.140624l-1.074219 29.109376c-.097657 2.667968-.261719 7.128906 2.40625 10.742187 3.804687 5.152344 10.582031 5.238281 13.839843 5.277344l35.796876.445312c.382812.007813.808593.011719 1.273437.011719 4.59375 0 12.933594-.519531 16.914063-7.265625 2.039062-3.457031 2.050781-7.273437 2.058593-10.0625l.082031-27.042969c17.632813.132813 35.285157.207032 52.953126.207032 65.570312 0 131.308593-.929688 196.667968-2.753907l-.285156 39.839844c-.019531 2.703125 2.113281 4.929687 4.8125 5.03125l44.382812 1.648437c.644532.023438 1.371094.050782 2.160157.050782 3.109375 0 7.136719-.421875 10.367187-3.128906 5.054688-4.238282 4.902344-11.074219 4.824219-14.746094l-.710937-31.984375c15.566406-2.625 30.347656-8.621094 37.820312-22.597657 5.546875-10.371093 5.261719-22.546874 5.035156-32.332031zm-442.027344-385.011719c9.039063-10.558593 25.457032-11.851562 40.710938-11.851562.898438 0 1.792969.003906 2.679688.011719l317.824218 2.628906c4.644532.039063 9.425782-.058594 14.046875-.15625 9.457031-.195313 19.238281-.394531 28.402344.570313 16.710937 1.761718 19.800781 27.503906 20.15625 42.6875.273437 11.671874.546875 23.355468.820313 35.046874-69.796876 4.226563-140.980469 2.820313-209.855469 1.445313-72.863281-1.449219-148.15625-2.933594-222.1875 2.226563-.195313-11.890626-.386719-23.777344-.578125-35.667969-.234375-14.285157.203125-27.859375 7.980468-36.941407zm73.917969 472.789063c-.003906 1.734375-.011719 3.894531-.671875 5.011719-1.289062 2.1875-6 2.382812-9.445312 2.339844l-35.800782-.445313c-1.253906-.015625-5.066406-.0625-5.917968-1.21875-.59375-.800781-.507813-3.074219-.457032-4.433594l1.066407-28.992187c17.074219.28125 34.179687.492187 51.308593.644531zm314.714844 6.21875c-1.097656.921875-3.992187.816406-5.726563.75l-39.535156-1.46875.253906-35.335937c11.511719-.339844 23.015626-.695313 34.5-1.089844 3.59375-.125 7.316407-.328125 11.074219-.664063l.683594 30.949219c.039063 1.707031.128906 5.707031-1.25 6.859375zm39.542969-66.378906c-8.40625 15.71875-30.191406 18.546875-50.394532 19.238281-118.257812 4.0625-238.207031 5.125-356.515624 3.160156-7.535157-.125-15.230469-.628906-19.28125-5.21875-3.371094-3.828125-3.75-10.089844-3.855469-16.714844-.375-23.066406-.75-46.128906-1.125-69.195312-.90625-55.710938-1.808594-111.421875-2.714844-167.132812-.511719-31.382813-1.019531-62.761719-1.527344-94.144532 73.757813-5.175781 149.007813-3.691406 221.824219-2.238281 68.949219 1.371094 140.207031 2.78125 210.289062-1.445313.742188 31.863282 1.488282 63.765626 2.234376 95.679688 1.273437 54.542969 2.546874 109.089844 3.820312 163.636719.367188 15.664062.730469 31.328125 1.101562 46.992187.210938 9.058594.453126 19.328125-3.855468 27.382813zm0 0"/><path d="m102.296875 151.261719c4.746094 1.726562 9.601563 1.945312 13.882813 2.140625 25.402343 1.15625 50.972656 1.734375 76.554687 1.734375 28.425781 0 56.867187-.710938 85.097656-2.140625 15.0625-.761719 31.546875-1.800782 50.402344-3.179688 4.671875-.339844 10.484375-.765625 15.691406-3.367187 8.816407-4.402344 10.695313-11.832031 9.511719-17.320313-1.5625-7.246094-8.382812-12.53125-16.585938-12.847656-10.785156-.417969-21.75-.445312-32.355468-.46875-5.738282-.011719-11.675782-.027344-17.488282-.101562-34.683593-.457032-69.789062-.875-104.339843-1.242188-19.820313-.210938-39.636719-.410156-59.453125-.59375-6.59375-.058594-14.804688-.140625-22.023438 3.503906-9.878906 4.988282-13.273437 15.371094-10.851562 22.523438 1.722656 5.082031 6.078125 9.21875 11.957031 11.359375zm3.402344-24.953125c4.308593-2.175782 9.726562-2.449219 14.828125-2.449219.875 0 1.742187.007813 2.589844.015625 19.816406.183594 39.628906.382812 59.441406.59375 34.542968.367188 69.644531.785156 104.316406 1.242188 5.867188.074218 11.832031.089843 17.597656.101562 10.515625.023438 21.386719.050781 31.992188.460938 4.246094.164062 6.707031 2.6875 7.199218 4.964843.511719 2.390625-1.019531 4.671875-4.207031 6.265625-3.441406 1.71875-7.765625 2.035156-11.949219 2.339844-18.78125 1.371094-35.195312 2.40625-50.183593 3.164062-53.308594 2.699219-107.375 2.832032-160.691407.40625-3.738281-.167968-7.605468-.347656-10.914062-1.550781-2.96875-1.078125-5.175781-3.011719-5.90625-5.167969-1.285156-3.789062 2.007812-8.429687 5.886719-10.386718zm0 0"/><path d="m74.09375 81.234375c5.511719 2.421875 10.796875 3.636719 15.792969 3.636719 2.019531 0 3.996093-.199219 5.917969-.597656 9.128906-1.898438 17.292968-8.765626 21.304687-17.917969 3.539063-8.082031 3.96875-17.695313 1.203125-27.066407-2.792969-9.480468-10.152344-17.664062-19.203125-21.359374-7.941406-3.246094-16.351563-2.777344-23.679687 1.3125-9.46875 5.28125-17.234376 16.003906-19.785157 27.320312-1.992187 8.824219-.5625 17.234375 4.023438 23.683594 3.1875 4.484375 8.042969 8.179687 14.425781 10.988281zm-8.695312-32.476563c1.925781-8.53125 7.914062-16.886718 14.90625-20.785156 5.921874-3.304687 11.4375-2.253906 15.023437-.789062 1.148437.46875 2.253906 1.046875 3.3125 1.710937-3.859375 5.386719-7.511719 10.988281-10.859375 16.6875-1.398438 2.378907-.601562 5.445313 1.78125 6.84375.792969.464844 1.664062.6875 2.523438.6875 1.714843 0 3.386718-.882812 4.316406-2.46875 2.929687-4.988281 6.113281-9.898437 9.457031-14.644531 1.246094 1.890625 2.222656 3.953125 2.859375 6.113281 2.097656 7.117188 1.824219 14.300781-.773438 20.226563-2.730468 6.238281-8.164062 10.890625-14.179687 12.140625-5.710937 1.1875-11.664063-.648438-15.648437-2.402344-4.707032-2.070313-8.175782-4.636719-10.300782-7.628906-3.738281-5.257813-3.378906-11.433594-2.417968-15.691407zm0 0"/><path d="m208.777344 81.234375c5.460937 2.398437 10.859375 3.621094 15.894531 3.621094 2.003906 0 3.949219-.195313 5.816406-.582031 9.128907-1.898438 17.292969-8.765626 21.304688-17.921876 3.539062-8.078124 3.96875-17.691406 1.207031-27.0625-2.792969-9.480468-10.152344-17.664062-19.207031-21.363281-7.941407-3.242187-16.351563-2.773437-23.675781 1.3125-9.46875 5.285157-17.234376 16.007813-19.789063 27.320313-1.988281 8.828125-.5625 17.238281 4.023437 23.6875 3.1875 4.484375 8.042969 8.179687 14.425782 10.988281zm-8.695313-32.476563c.671875-2.972656 1.84375-5.917968 3.371094-8.664062 3.101563 2.675781 6.03125 5.566406 8.71875 8.648438.988281 1.132812 2.375 1.710937 3.769531 1.710937 1.164063 0 2.335938-.402344 3.28125-1.230469 2.082032-1.816406 2.296875-4.972656.484375-7.054687-3.132812-3.589844-6.5625-6.949219-10.195312-10.042969 1.707031-1.660156 3.550781-3.082031 5.476562-4.152344 5.917969-3.304687 11.4375-2.253906 15.023438-.789062 6.308593 2.578125 11.441406 8.296875 13.394531 14.929687 2.097656 7.117188 1.820312 14.300781-.773438 20.226563-2.734374 6.238281-8.164062 10.890625-14.179687 12.140625-5.710937 1.1875-11.664063-.648438-15.648437-2.402344-4.707032-2.070313-8.175782-4.636719-10.300782-7.628906-3.742187-5.257813-3.378906-11.433594-2.421875-15.691407zm0 0"/><path d="m352.050781 81.234375c5.457031 2.398437 10.851563 3.621094 15.890625 3.621094 2 0 3.945313-.195313 5.816406-.582031 9.128907-1.898438 17.292969-8.765626 21.304688-17.921876 3.539062-8.082031 3.96875-17.695312 1.207031-27.066406-2.792969-9.476562-10.152343-17.664062-19.207031-21.359375-7.941406-3.242187-16.351562-2.773437-23.675781 1.3125-9.46875 5.285157-17.234375 16.007813-19.789063 27.320313-1.988281 8.824218-.558594 17.238281 4.023438 23.6875 3.191406 4.484375 8.042968 8.179687 14.429687 10.988281zm-8.695312-32.476563c1.921875-8.53125 7.914062-16.886718 14.902343-20.785156 5.921876-3.304687 11.4375-2.253906 15.023438-.789062 2.394531.976562 4.617188 2.410156 6.566406 4.175781l-15.839844 18.863281c-1.773437 2.113282-1.5 5.265625.617188 7.042969.933594.785156 2.074219 1.171875 3.210938 1.171875 1.425781 0 2.84375-.609375 3.832031-1.785156l14.171875-16.878906c.320312.765624.601562 1.546874.835937 2.339843 2.097657 7.117188 1.824219 14.300781-.773437 20.226563-2.730469 6.238281-8.167969 10.890625-14.179688 12.140625-5.710937 1.1875-11.664062-.652344-15.648437-2.402344-4.707031-2.070313-8.171875-4.636719-10.300781-7.628906-3.738282-5.257813-3.378907-11.433594-2.417969-15.691407zm0 0"/><path d="m420.941406 186.632812c-.796875-7.308593-2.0625-14.871093-7.910156-19.992187-5.667969-4.960937-13.449219-5.335937-18.597656-5.582031-112.347656-5.386719-226.148438 3.253906-336.203125 11.609375-5.300781.402343-21.433594 1.625-25.5625 14.53125-2.710938 8.460937-2.824219 18.207031-2.929688 27.632812-.042969 3.792969-.085937 7.375-.300781 10.679688-1.726562 26.644531-3.066406 53.714843-3.980469 80.457031-.507812 14.828125-.894531 29.828125-1.148437 44.589844-.332032 19.164062-.359375 36.453125 2.664062 53.957031 1.332032 7.707031 3.511719 16.5 9.566406 23.253906 8.199219 9.144531 20.542969 11.605469 32.664063 12.898438 18.824219 2.007812 37.847656 2.523437 56.679687 2.523437 10.050782 0 20.046876-.148437 29.921876-.292968 76.265624-1.121094 155.128906-2.28125 232.59375-7.472657 11.605468-.777343 22.742187-2.058593 31.5-9.089843 11.199218-8.996094 13.890624-24.050782 14.9375-34.59375 1.769531-17.777344.796874-35.4375-.554688-55.019532-3.441406-49.878906-7.929688-100.375-13.339844-150.089844zm3.941406 204.121094c-1.382812 13.902344-4.957031 22.734375-11.246093 27.785156-6.5 5.21875-15.578125 6.214844-25.90625 6.910157-77.207031 5.171875-155.9375 6.332031-232.070313 7.453125-28.085937.414062-57.128906.839844-85.398437-2.175782-10.132813-1.082031-20.332031-3-26.277344-9.628906-4.363281-4.871094-6.066406-11.976562-7.15625-18.285156-2.878906-16.640625-2.84375-33.429688-2.523437-52.082031.257812-14.703125.640624-29.648438 1.144531-44.421875.914062-26.640625 2.25-53.605469 3.96875-80.148438.230469-3.574218.273437-7.285156.316406-11.214844.101563-8.683593.203125-17.667968 2.453125-24.695312 1.421875-4.429688 6.757812-6.847656 16.800781-7.609375 109.75-8.332031 223.238281-16.949219 334.96875-11.589844 4.976563.238281 9.675781.65625 12.484375 3.113281 3.148438 2.753907 3.953125 7.980469 4.558594 13.554688 5.398438 49.582031 9.875 99.945312 13.304688 149.695312 1.320312 19.121094 2.273437 36.332032.578124 53.339844zm0 0"/><path d="m413.113281 340.328125c-6.433593-3.898437-14.3125-3.707031-21.261719-3.539063-1.855468.046876-3.613281.085938-5.199218.046876-7.265625-.1875-14.527344-.378907-21.792969-.574219l-4.089844-.105469-3.429687-.09375c-3.609375-.09375-7.273438-.191406-10.960938-.285156l18.257813-47.152344c.601562-1.550781.390625-3.300781-.5625-4.667969-.691407-.992187-1.695313-1.679687-2.84375-1.976562 9.078125-12.070313 11.835937-29.078125 5.988281-43.066407-2.042969-4.890624-5.945312-11.398437-12.929688-14.628906-6.097656-2.820312-12.539062-2.335937-19.148437-1.542968-4.601563.554687-12.097656 1.457031-18.210937 5.292968-2.179688-4.816406-4.964844-9.828125-9.027344-13.898437-7.507813-7.523438-18.640625-10.917969-29.074219-8.859375-7.277344 1.4375-13.867187 5.464844-18.574219 11.105468-7.027344-9.816406-19.175781-16.039062-31.277344-15.265624-11.984374.765624-23.121093 8.328124-28.898437 18.78125-5.8125-6.152344-13.515625-10.511719-21.839844-12.164063-11.523437-2.285156-23.917969.679687-33.160156 7.925781-4.132813 3.246094-8.1875 8.132813-9.921875 13.835938-10.296875-3.433594-22.617188.566406-30.785156 7.503906-8.519532 7.230469-14.117188 17.339844-15.363282 27.734375-1.164062 9.691406 1.621094 19.671875 7.347657 27.058594-.332031.269531-.652344.566406-.953125.914062-2.453125 2.820313-2.617188 6.625-.492188 11.308594 5.023438 11.074219 10.472656 22.089844 16.195313 32.859375-3.792969.148438-7.636719.261719-11.390625.375-15.863282.472656-32.265625.960938-47.894532 3.949219-3.0625.582031-9.433593 1.800781-13.007812 6.832031-4.765625 6.714844-1.683594 15.757812 3.90625 20.289062 4.925781 3.996094 11.03125 5.125 16.898438 5.753907 9.769531 1.046875 19.703124 1.089843 28.578124 1.089843h1.277344c104.179688-.023437 209.738282-2.976562 313.75-8.773437 3.902344-.214844 12.015625-.667969 15.871094-7.175781 4.011719-6.773438.132812-15.242188-5.980469-18.886719zm-314.175781-74.40625c.945312-7.917969 5.289062-15.683594 11.90625-21.304687 9.222656-7.832032 20.140625-7.792969 25.359375-3.222657 1.597656 1.394531 3.90625 1.632813 5.753906.585938 1.851563-1.046875 2.835938-3.152344 2.457031-5.242188-.917968-5.074219 3.109376-10.289062 6.835938-13.210937 6.980469-5.472656 16.339844-7.710938 25.042969-5.984375 8.699219 1.726562 16.496093 7.367187 20.859375 15.089843 1.023437 1.8125 3.066406 2.800782 5.117187 2.480469 2.058594-.320312 3.703125-1.878906 4.128907-3.914062 2.261718-10.761719 12.242187-19.402344 23.214843-20.105469 10.960938-.707031 21.96875 6.601562 25.582031 16.988281.683594 1.957031 2.5 3.292969 4.574219 3.355469 2.078125.074219 3.96875-1.164062 4.765625-3.078125 2.773438-6.664063 9.144532-11.875 16.226563-13.273437 7.09375-1.398438 14.960937 1 20.0625 6.113281 4.535156 4.546875 7.210937 11.230469 9.574219 17.128906.679687 1.699219 2.230468 2.890625 4.042968 3.109375 1.820313.214844 3.605469-.574219 4.667969-2.0625 3.335937-4.675781 10.640625-5.914062 17.226563-6.707031 5.324218-.640625 10.03125-1.03125 13.753906.691406 3.171875 1.46875 5.980468 4.808594 7.902344 9.410156 5.625 13.457031.875 30.558594-10.804688 39.269531l-154.265625 2.671876c-28.148437.484374-57.203125.992187-85.8125 4.300781-.214844-.359375-.464844-.707031-.78125-1.011719-5.546875-5.382812-8.378906-13.84375-7.390625-22.078125zm4.898438 33.554687c29.527343-3.730468 59.890624-4.257812 89.261718-4.765624l159.53125-2.765626-16.867187 43.558594c-12.246094-.3125-24.734375-.609375-37.082031-.859375-46.4375-.941406-82.261719-1.039062-116.148438-.308593-20.039062.429687-40.304688 1.128906-60.359375 2.046874-6.453125-11.902343-12.5625-24.175781-18.15625-36.5-.066406-.148437-.125-.28125-.179687-.40625zm306.65625 54.640626c-1.136719 1.914062-5.996094 2.183593-7.824219 2.285156-103.828125 5.789062-209.203125 8.734375-313.195313 8.757812-8.953125 0-19.078125.007813-28.789062-1.03125-4.339844-.464844-8.757813-1.222656-11.667969-3.582031-2.1875-1.773437-3.203125-5.105469-2.050781-6.730469 1.097656-1.542968 4.019531-2.28125 6.730468-2.800781 14.847657-2.835937 30.847657-3.3125 46.316407-3.773437 5.332031-.160157 10.84375-.324219 16.199219-.582032 22.054687-1.070312 44.4375-1.851562 66.535156-2.328125 14.835937-.316406 30.046875-.480469 46.367187-.480469 20.808594 0 43.421875.261719 69.363281.789063 19.683594.398437 39.742188.917969 58.597657 1.417969l7.519531.199218c7.265625.191407 14.53125.386719 21.800781.574219 1.839844.046875 3.800781 0 5.699219-.046875 5.855469-.140625 11.90625-.289062 15.871094 2.109375 1.976562 1.183594 3.300781 3.914063 2.527344 5.222657zm0 0"/></svg>