<svg height="512pt" viewBox="-65 0 512 512" width="512pt" xmlns="http://www.w3.org/2000/svg"><path d="m232.222656 156.203125 41.742188-125.484375c3.59375-11.429688 15.773437-17.78125 27.203125-14.1875 11.429687 3.59375 17.785156 15.773438 14.1875 27.207031l-37.660157 112.464844zm0 0" fill="#5e5f62"/><path d="m282.035156 112.8125c-37.066406 0-99.796875-7.304688-99.796875-34.710938 0-12.972656 13.953125-22.703124 41.480469-28.914062 4.675781-1.054688 9.320312 1.878906 10.375 6.554688 1.054688 4.675781-1.882812 9.320312-6.558594 10.375-21.417968 4.832031-27.507812 10.875-27.941406 12.226562 1.734375 4.523438 28.742188 17.113281 82.441406 17.113281 53.699219 0 80.773438-12.589843 82.4375-17.597656-5.574218-4.984375-12.421875-8.324219-19.785156-9.652344-4.601562-1.339843-7.242188-6.15625-5.898438-10.757812 1.339844-4.601563 6.160157-7.242188 10.757813-5.902344 21.417969 6.25 32.285156 15.179687 32.285156 26.554687 0 27.40625-62.734375 34.710938-99.796875 34.710938zm0 0" fill="#2c2f38"/><path d="m17.355469 190.914062h312.40625v277.695313c0 11.507813-4.570313 22.542969-12.707031 30.683594-8.136719 8.136719-19.175782 12.707031-30.683594 12.707031h-225.625c-23.964844 0-43.390625-19.425781-43.390625-43.390625zm0 0" fill="#b0d3f0"/><path d="m8.679688 147.527344h329.761718c4.792969 0 8.675782 3.882812 8.675782 8.675781v43.390625c0 4.792969-3.882813 8.675781-8.675782 8.675781h-329.761718c-4.792969 0-8.679688-3.882812-8.679688-8.675781v-43.390625c0-4.792969 3.886719-8.675781 8.679688-8.675781zm0 0" fill="#b0d3f0"/><path d="m329.761719 381.832031v86.777344c0 11.507813-4.570313 22.542969-12.707031 30.683594-8.136719 8.136719-19.175782 12.707031-30.683594 12.707031h-225.625c-23.964844 0-43.390625-19.425781-43.390625-43.390625v-86.777344zm0 0" fill="#f29c1f"/><g fill="#2c2f38"><path d="m52.066406 477.289062c-4.792968 0-8.675781-3.886718-8.675781-8.679687v-225.625c0-4.792969 3.882813-8.679687 8.675781-8.679687 4.792969 0 8.679688 3.886718 8.679688 8.679687v225.625c0 4.792969-3.886719 8.679687-8.679688 8.679687zm0 0"/><path d="m86.78125 260.339844h-34.714844c-4.792968 0-8.675781-3.886719-8.675781-8.679688 0-4.792968 3.882813-8.675781 8.675781-8.675781h34.714844c4.792969 0 8.675781 3.882813 8.675781 8.675781 0 4.792969-3.882812 8.679688-8.675781 8.679688zm0 0"/><path d="m86.78125 303.730469h-34.714844c-4.792968 0-8.675781-3.886719-8.675781-8.679688s3.882813-8.679687 8.675781-8.679687h34.714844c4.792969 0 8.675781 3.886718 8.675781 8.679687s-3.882812 8.679688-8.675781 8.679688zm0 0"/><path d="m86.78125 347.117188h-34.714844c-4.792968 0-8.675781-3.882813-8.675781-8.675782 0-4.792968 3.882813-8.679687 8.675781-8.679687h34.714844c4.792969 0 8.675781 3.886719 8.675781 8.679687 0 4.792969-3.882812 8.675782-8.675781 8.675782zm0 0"/><path d="m86.78125 390.507812h-34.714844c-4.792968 0-8.675781-3.882812-8.675781-8.675781s3.882813-8.679687 8.675781-8.679687h34.714844c4.792969 0 8.675781 3.886718 8.675781 8.679687s-3.882812 8.675781-8.675781 8.675781zm0 0"/><path d="m86.78125 433.898438h-34.714844c-4.792968 0-8.675781-3.886719-8.675781-8.679688s3.882813-8.675781 8.675781-8.675781h34.714844c4.792969 0 8.675781 3.882812 8.675781 8.675781s-3.882812 8.679688-8.675781 8.679688zm0 0"/><path d="m86.78125 477.289062h-34.714844c-4.792968 0-8.675781-3.886718-8.675781-8.679687s3.882813-8.675781 8.675781-8.675781h34.714844c4.792969 0 8.675781 3.882812 8.675781 8.675781s-3.882812 8.679687-8.675781 8.679687zm0 0"/></g><path d="m295.050781 269.015625c-4.792969 0-8.679687-3.882813-8.679687-8.675781v-17.355469c0-4.792969 3.886718-8.679687 8.679687-8.679687s8.679688 3.886718 8.679688 8.679687v17.355469c0 4.792968-3.886719 8.675781-8.679688 8.675781zm0 0" fill="#fff"/><path d="m295.050781 347.117188c-4.792969 0-8.679687-3.882813-8.679687-8.675782v-43.390625c0-4.792969 3.886718-8.679687 8.679687-8.679687s8.679688 3.886718 8.679688 8.679687v43.390625c0 4.792969-3.886719 8.675782-8.679688 8.675782zm0 0" fill="#fff"/><path d="m86.78125 121.492188c-14.378906 0-26.035156-11.65625-26.035156-26.035157 0-14.378906 11.65625-26.035156 26.035156-26.035156 14.375 0 26.03125 11.65625 26.03125 26.035156 0 6.90625-2.742188 13.527344-7.625 18.410157-4.882812 4.882812-11.503906 7.625-18.40625 7.625zm0-34.710938c-4.792969 0-8.679688 3.882812-8.679688 8.675781s3.886719 8.679688 8.679688 8.679688 8.675781-3.886719 8.675781-8.679688-3.882812-8.675781-8.675781-8.675781zm0 0" fill="#f29c1f"/><path d="m130.167969 60.746094c-14.375 0-26.03125-11.65625-26.03125-26.035156 0-14.378907 11.65625-26.03125 26.03125-26.03125 14.378906 0 26.035156 11.652343 26.035156 26.03125 0 6.90625-2.742187 13.527343-7.625 18.410156-4.882813 4.882812-11.503906 7.625-18.410156 7.625zm0-34.710938c-4.792969 0-8.675781 3.882813-8.675781 8.675782 0 4.792968 3.882812 8.679687 8.675781 8.679687s8.679687-3.886719 8.679687-8.679687c0-4.792969-3.886718-8.675782-8.679687-8.675782zm0 0" fill="#f29c1f"/><path d="m34.710938 26.035156c-4.792969 0-8.675782-3.886718-8.675782-8.679687v-8.675781c0-4.792969 3.882813-8.679688 8.675782-8.679688 4.792968 0 8.679687 3.886719 8.679687 8.679688v8.675781c0 4.792969-3.886719 8.679687-8.679687 8.679687zm0 0" fill="#f29c1f"/><path d="m34.710938 69.421875c-4.792969 0-8.675782-3.882813-8.675782-8.675781v-8.679688c0-4.792968 3.882813-8.675781 8.675782-8.675781 4.792968 0 8.679687 3.882813 8.679687 8.675781v8.679688c0 4.792968-3.886719 8.675781-8.679687 8.675781zm0 0" fill="#f29c1f"/><path d="m17.355469 43.390625h-8.675781c-4.792969 0-8.679688-3.886719-8.679688-8.679687 0-4.792969 3.886719-8.675782 8.679688-8.675782h8.675781c4.792969 0 8.679687 3.882813 8.679687 8.675782 0 4.792968-3.886718 8.679687-8.679687 8.679687zm0 0" fill="#f29c1f"/><path d="m60.746094 43.390625h-8.679688c-4.792968 0-8.675781-3.886719-8.675781-8.679687 0-4.792969 3.882813-8.675782 8.675781-8.675782h8.679688c4.792968 0 8.675781 3.882813 8.675781 8.675782 0 4.792968-3.882813 8.679687-8.675781 8.679687zm0 0" fill="#f29c1f"/><path d="m263.722656 208.269531-54.496094 173.5625-25.167968 80.269531c-3.59375 11.429688-15.773438 17.78125-27.203125 14.1875-11.433594-3.59375-17.785157-15.773437-14.191407-27.203124l21.089844-67.253907 54.496094-173.5625" fill="#5e5f62"/></svg>